<svg width="32" height="32" viewBox="0 0 32 32" fill="none" xmlns="http://www.w3.org/2000/svg">
<path opacity="0.2" d="M21 18C21 18.9889 20.7068 19.9556 20.1573 20.7779C19.6079 21.6001 18.827 22.241 17.9134 22.6194C16.9998 22.9978 15.9945 23.0969 15.0245 22.9039C14.0546 22.711 13.1637 22.2348 12.4645 21.5355C11.7652 20.8363 11.289 19.9454 11.0961 18.9755C10.9031 18.0055 11.0022 17.0002 11.3806 16.0866C11.759 15.173 12.3999 14.3921 13.2221 13.8427C14.0444 13.2932 15.0111 13 16 13C17.3261 13 18.5979 13.5268 19.5355 14.4645C20.4732 15.4021 21 16.6739 21 18ZM8 7C7.20887 7 6.43552 7.2346 5.77772 7.67412C5.11992 8.11365 4.60723 8.73836 4.30448 9.46927C4.00173 10.2002 3.92252 11.0044 4.07686 11.7804C4.2312 12.5563 4.61216 13.269 5.17157 13.8284C5.73098 14.3878 6.44371 14.7688 7.21964 14.9231C7.99556 15.0775 8.79983 14.9983 9.53073 14.6955C10.2616 14.3928 10.8864 13.8801 11.3259 13.2223C11.7654 12.5645 12 11.7911 12 11C12 9.93913 11.5786 8.92172 10.8284 8.17157C10.0783 7.42143 9.06087 7 8 7ZM24 7C23.2089 7 22.4355 7.2346 21.7777 7.67412C21.1199 8.11365 20.6072 8.73836 20.3045 9.46927C20.0017 10.2002 19.9225 11.0044 20.0769 11.7804C20.2312 12.5563 20.6122 13.269 21.1716 13.8284C21.731 14.3878 22.4437 14.7688 23.2196 14.9231C23.9956 15.0775 24.7998 14.9983 25.5307 14.6955C26.2616 14.3928 26.8864 13.8801 27.3259 13.2223C27.7654 12.5645 28 11.7911 28 11C28 9.93913 27.5786 8.92172 26.8284 8.17157C26.0783 7.42143 25.0609 7 24 7Z" fill="#8B5CF6"/>
<path d="M30.6 18.8C30.4949 18.8788 30.3754 18.9361 30.2482 18.9687C30.121 19.0013 29.9886 19.0085 29.8586 18.99C29.7286 18.9714 29.6035 18.9274 29.4905 18.8605C29.3775 18.7936 29.2788 18.7051 29.2 18.6C28.5973 17.7898 27.8127 17.1325 26.9096 16.6809C26.0064 16.2293 25.0098 15.9961 24 16C23.7348 16 23.4804 15.8947 23.2929 15.7071C23.1054 15.5196 23 15.2652 23 15C23 14.7348 23.1054 14.4804 23.2929 14.2929C23.4804 14.1054 23.7348 14 24 14C24.5611 14 25.1109 13.8426 25.587 13.5457C26.0632 13.2488 26.4465 12.8244 26.6935 12.3206C26.9404 11.8168 27.0412 11.2538 26.9843 10.6956C26.9273 10.1374 26.715 9.60636 26.3714 9.1628C26.0277 8.71923 25.5666 8.38092 25.0404 8.18629C24.5141 7.99166 23.9438 7.94851 23.3943 8.06175C22.8447 8.17499 22.338 8.44007 21.9315 8.82688C21.5251 9.2137 21.2353 9.70675 21.095 10.25C21.0622 10.3772 21.0046 10.4967 20.9256 10.6017C20.8466 10.7067 20.7477 10.7951 20.6345 10.8618C20.5213 10.9285 20.3961 10.9723 20.266 10.9907C20.1359 11.0091 20.0035 11.0016 19.8762 10.9688C19.749 10.9359 19.6295 10.8784 19.5246 10.7994C19.4196 10.7203 19.3312 10.6214 19.2645 10.5083C19.1977 10.3951 19.1539 10.2699 19.1356 10.1398C19.1172 10.0097 19.1247 9.87724 19.1575 9.75002C19.3522 8.99666 19.72 8.29914 20.2317 7.71296C20.7434 7.12678 21.3849 6.66811 22.1051 6.37346C22.8252 6.0788 23.6042 5.9563 24.3801 6.01568C25.1559 6.07507 25.9072 6.31471 26.5741 6.71553C27.241 7.11636 27.8052 7.66731 28.2217 8.32454C28.6383 8.98178 28.8956 9.72715 28.9734 10.5014C29.0512 11.2756 28.9472 12.0573 28.6697 12.7842C28.3922 13.5112 27.9489 14.1633 27.375 14.6888C28.7348 15.2775 29.9168 16.2118 30.8037 17.3988C30.8825 17.5041 30.9398 17.6239 30.9722 17.7514C31.0046 17.8789 31.0115 18.0115 30.9926 18.1417C30.9737 18.2718 30.9293 18.397 30.8619 18.51C30.7945 18.6229 30.7055 18.7215 30.6 18.8ZM23.865 26.5C23.9348 26.6139 23.9811 26.7405 24.0012 26.8725C24.0213 27.0046 24.0147 27.1393 23.9818 27.2687C23.949 27.3981 23.8906 27.5197 23.81 27.6262C23.7294 27.7327 23.6284 27.822 23.5127 27.8887C23.3971 27.9555 23.2692 27.9985 23.1367 28.0151C23.0042 28.0317 22.8698 28.0215 22.7412 27.9853C22.6127 27.9491 22.4927 27.8875 22.3884 27.8041C22.2841 27.7208 22.1975 27.6174 22.1338 27.5C21.5037 26.4336 20.6066 25.5499 19.5309 24.936C18.4551 24.3221 17.238 23.9993 15.9994 23.9993C14.7608 23.9993 13.5436 24.3221 12.4679 24.936C11.3921 25.5499 10.495 26.4336 9.865 27.5C9.80248 27.6195 9.71644 27.7251 9.61205 27.8105C9.50765 27.8959 9.38706 27.9593 9.25754 27.9969C9.12801 28.0345 8.99222 28.0455 8.85833 28.0292C8.72445 28.0129 8.59524 27.9698 8.47847 27.9023C8.36171 27.8348 8.2598 27.7444 8.17888 27.6365C8.09797 27.5286 8.03972 27.4054 8.00763 27.2744C7.97554 27.1434 7.97028 27.0073 7.99217 26.8742C8.01406 26.7411 8.06265 26.6138 8.135 26.5C9.1045 24.8342 10.5827 23.5234 12.3525 22.76C11.3567 21.9976 10.6248 20.9422 10.2597 19.7423C9.89471 18.5424 9.91487 17.2583 10.3174 16.0704C10.7199 14.8825 11.4846 13.8507 12.5038 13.1199C13.5231 12.389 14.7458 11.996 16 11.996C17.2542 11.996 18.4769 12.389 19.4962 13.1199C20.5154 13.8507 21.2801 14.8825 21.6826 16.0704C22.0851 17.2583 22.1053 18.5424 21.7402 19.7423C21.3752 20.9422 20.6433 21.9976 19.6475 22.76C21.4173 23.5234 22.8955 24.8342 23.865 26.5ZM16 22C16.7911 22 17.5645 21.7654 18.2223 21.3259C18.8801 20.8864 19.3928 20.2617 19.6955 19.5308C19.9983 18.7998 20.0775 17.9956 19.9231 17.2197C19.7688 16.4437 19.3878 15.731 18.8284 15.1716C18.269 14.6122 17.5563 14.2312 16.7804 14.0769C16.0044 13.9225 15.2002 14.0018 14.4693 14.3045C13.7384 14.6073 13.1136 15.1199 12.6741 15.7777C12.2346 16.4355 12 17.2089 12 18C12 19.0609 12.4214 20.0783 13.1716 20.8284C13.9217 21.5786 14.9391 22 16 22ZM9 15C9 14.7348 8.89464 14.4804 8.70711 14.2929C8.51957 14.1054 8.26522 14 8 14C7.43891 14 6.88908 13.8426 6.41296 13.5457C5.93684 13.2488 5.55352 12.8244 5.30654 12.3206C5.05956 11.8168 4.95881 11.2538 5.01575 10.6956C5.07268 10.1374 5.28502 9.60636 5.62863 9.1628C5.97225 8.71923 6.43337 8.38092 6.95962 8.18629C7.48588 7.99166 8.05616 7.94851 8.60571 8.06175C9.15525 8.17499 9.66203 8.44007 10.0685 8.82688C10.4749 9.2137 10.7647 9.70675 10.905 10.25C10.9713 10.5069 11.137 10.727 11.3655 10.8618C11.5941 10.9966 11.8668 11.0351 12.1237 10.9688C12.3807 10.9025 12.6007 10.7368 12.7355 10.5083C12.8703 10.2797 12.9088 10.0069 12.8425 9.75002C12.6478 8.99666 12.28 8.29914 11.7683 7.71296C11.2566 7.12678 10.6151 6.66811 9.89494 6.37346C9.17478 6.0788 8.39579 5.9563 7.61995 6.01568C6.84411 6.07507 6.09284 6.31471 5.42591 6.71553C4.75898 7.11636 4.19481 7.66731 3.77828 8.32454C3.36174 8.98178 3.10435 9.72715 3.02659 10.5014C2.94882 11.2756 3.05281 12.0573 3.3303 12.7842C3.60779 13.5112 4.05112 14.1633 4.625 14.6888C3.2666 15.2781 2.08589 16.2123 1.2 17.3988C1.12112 17.5038 1.06371 17.6234 1.03105 17.7506C0.998379 17.8779 0.991094 18.0103 1.00961 18.1404C1.02812 18.2704 1.07207 18.3956 1.13895 18.5086C1.20582 18.6217 1.29432 18.7205 1.39937 18.7994C1.50443 18.8783 1.624 18.9357 1.75124 18.9683C1.87849 19.001 2.01092 19.0083 2.14098 18.9898C2.27104 18.9713 2.39618 18.9273 2.50925 18.8604C2.62233 18.7936 2.72112 18.7051 2.8 18.6C3.40273 17.7898 4.18727 17.1325 5.09045 16.6809C5.99363 16.2293 6.99022 15.9961 8 16C8.26522 16 8.51957 15.8947 8.70711 15.7071C8.89464 15.5196 9 15.2652 9 15Z" fill="#8B5CF6"/>
</svg>
